<?xml version="1.0" encoding="utf-8" standalone="no"?>
<!DOCTYPE svg PUBLIC "-//W3C//DTD SVG 1.1//EN"
  "http://www.w3.org/Graphics/SVG/1.1/DTD/svg11.dtd">
<!-- Created with matplotlib (https://matplotlib.org/) -->
<svg height="216pt" version="1.1" viewBox="0 0 432 216" width="432pt" xmlns="http://www.w3.org/2000/svg" xmlns:xlink="http://www.w3.org/1999/xlink">
 <defs>
  <style type="text/css">
*{stroke-linecap:butt;stroke-linejoin:round;}
  </style>
 </defs>
 <g id="figure_1">
  <g id="patch_1">
   <path d="M 0 216 
L 432 216 
L 432 0 
L 0 0 
z
" style="fill:#ffffff;"/>
  </g>
  <g id="axes_1">
   <g id="line2d_1">
    <path clip-path="url(#p23f732d9f0)" style="fill:none;stroke:#6495ed;stroke-linecap:square;stroke-width:1.5;"/>
   </g>
   <g id="line2d_2">
    <path clip-path="url(#p23f732d9f0)" style="fill:none;stroke:#6495ed;stroke-linecap:square;stroke-width:1.5;"/>
   </g>
   <g id="line2d_3">
    <path clip-path="url(#p23f732d9f0)" style="fill:none;stroke:#6495ed;stroke-linecap:square;stroke-width:1.5;"/>
   </g>
   <g id="line2d_4">
    <path clip-path="url(#p23f732d9f0)" style="fill:none;stroke:#6495ed;stroke-linecap:square;stroke-width:1.5;"/>
   </g>
   <g id="line2d_5">
    <path clip-path="url(#p23f732d9f0)" style="fill:none;stroke:#6495ed;stroke-linecap:square;stroke-width:1.5;"/>
   </g>
   <g id="line2d_6">
    <path clip-path="url(#p23f732d9f0)" style="fill:none;stroke:#6495ed;stroke-linecap:square;stroke-width:1.5;"/>
   </g>
   <g id="line2d_7">
    <path clip-path="url(#p23f732d9f0)" style="fill:none;stroke:#6495ed;stroke-linecap:square;stroke-width:1.5;"/>
   </g>
   <g id="line2d_8">
    <path clip-path="url(#p23f732d9f0)" style="fill:none;stroke:#6495ed;stroke-linecap:square;stroke-width:1.5;"/>
   </g>
   <g id="line2d_9">
    <path clip-path="url(#p23f732d9f0)" style="fill:none;stroke:#6495ed;stroke-linecap:square;stroke-width:1.5;"/>
   </g>
   <g id="line2d_10">
    <path clip-path="url(#p23f732d9f0)" style="fill:none;stroke:#6495ed;stroke-linecap:square;stroke-width:1.5;"/>
   </g>
   <g id="line2d_11">
    <path clip-path="url(#p23f732d9f0)" style="fill:none;stroke:#6495ed;stroke-linecap:square;stroke-width:1.5;"/>
   </g>
   <g id="line2d_12">
    <path clip-path="url(#p23f732d9f0)" style="fill:none;stroke:#6495ed;stroke-linecap:square;stroke-width:1.5;"/>
   </g>
   <g id="line2d_13">
    <path clip-path="url(#p23f732d9f0)" style="fill:none;stroke:#6495ed;stroke-linecap:square;stroke-width:1.5;"/>
   </g>
   <g id="line2d_14">
    <path clip-path="url(#p23f732d9f0)" style="fill:none;stroke:#6495ed;stroke-linecap:square;stroke-width:1.5;"/>
   </g>
   <g id="line2d_15">
    <path clip-path="url(#p23f732d9f0)" style="fill:none;stroke:#6495ed;stroke-linecap:square;stroke-width:1.5;"/>
   </g>
   <g id="line2d_16">
    <path clip-path="url(#p23f732d9f0)" d="M -0.785455 217 
L -0.785455 184.276364 
L -0.785455 103.985455 
L -0.785455 23.694545 
L -0.785455 -1 
" style="fill:none;stroke:#6495ed;stroke-linecap:square;stroke-width:1.5;"/>
   </g>
   <g id="line2d_17">
    <path clip-path="url(#p23f732d9f0)" d="M -1 216.392727 
L 67.461818 216.392727 
L 147.752727 216.392727 
L 228.043636 216.392727 
L 308.334545 216.392727 
L 388.625455 216.392727 
L 433 216.392727 
" style="fill:none;stroke:#6495ed;stroke-linecap:square;stroke-width:1.5;"/>
   </g>
   <g id="line2d_18">
    <path clip-path="url(#p23f732d9f0)" d="M 35.345455 217 
L 35.345455 184.276364 
L 35.345455 103.985455 
L 35.345455 23.694545 
L 35.345455 -1 
" style="fill:none;stroke:#6495ed;stroke-linecap:square;stroke-width:1.5;"/>
   </g>
   <g id="line2d_19">
    <path clip-path="url(#p23f732d9f0)" d="M -1 180.261818 
L 67.461818 180.261818 
L 147.752727 180.261818 
L 228.043636 180.261818 
L 308.334545 180.261818 
L 388.625455 180.261818 
L 433 180.261818 
" style="fill:none;stroke:#6495ed;stroke-linecap:square;stroke-width:1.5;"/>
   </g>
   <g id="line2d_20">
    <path clip-path="url(#p23f732d9f0)" d="M 71.476364 217 
L 71.476364 184.276364 
L 71.476364 103.985455 
L 71.476364 23.694545 
L 71.476364 -1 
" style="fill:none;stroke:#6495ed;stroke-linecap:square;stroke-width:1.5;"/>
   </g>
   <g id="line2d_21">
    <path clip-path="url(#p23f732d9f0)" d="M -1 144.130909 
L 67.461818 144.130909 
L 147.752727 144.130909 
L 228.043636 144.130909 
L 308.334545 144.130909 
L 388.625455 144.130909 
L 433 144.130909 
" style="fill:none;stroke:#000000;stroke-linecap:square;stroke-width:1.5;"/>
   </g>
   <g id="line2d_22">
    <path clip-path="url(#p23f732d9f0)" d="M 107.607273 217 
L 107.607273 184.276364 
L 107.607273 103.985455 
L 107.607273 23.694545 
L 107.607273 -1 
" style="fill:none;stroke:#000000;stroke-linecap:square;stroke-width:1.5;"/>
   </g>
   <g id="line2d_23">
    <path clip-path="url(#p23f732d9f0)" d="M -1 108 
L 67.461818 108 
L 147.752727 108 
L 228.043636 108 
L 308.334545 108 
L 388.625455 108 
L 433 108 
" style="fill:none;stroke:#6495ed;stroke-linecap:square;stroke-width:1.5;"/>
   </g>
   <g id="line2d_24">
    <path clip-path="url(#p23f732d9f0)" d="M 143.738182 217 
L 143.738182 184.276364 
L 143.738182 103.985455 
L 143.738182 23.694545 
L 143.738182 -1 
" style="fill:none;stroke:#6495ed;stroke-linecap:square;stroke-width:1.5;"/>
   </g>
   <g id="line2d_25">
    <path clip-path="url(#p23f732d9f0)" d="M -1 71.869091 
L 67.461818 71.869091 
L 147.752727 71.869091 
L 228.043636 71.869091 
L 308.334545 71.869091 
L 388.625455 71.869091 
L 433 71.869091 
" style="fill:none;stroke:#6495ed;stroke-linecap:square;stroke-width:1.5;"/>
   </g>
   <g id="line2d_26">
    <path clip-path="url(#p23f732d9f0)" d="M 179.869091 217 
L 179.869091 184.276364 
L 179.869091 103.985455 
L 179.869091 23.694545 
L 179.869091 -1 
" style="fill:none;stroke:#6495ed;stroke-linecap:square;stroke-width:1.5;"/>
   </g>
   <g id="line2d_27">
    <path clip-path="url(#p23f732d9f0)" d="M -1 35.738182 
L 67.461818 35.738182 
L 147.752727 35.738182 
L 228.043636 35.738182 
L 308.334545 35.738182 
L 388.625455 35.738182 
L 433 35.738182 
" style="fill:none;stroke:#6495ed;stroke-linecap:square;stroke-width:1.5;"/>
   </g>
   <g id="line2d_28">
    <path clip-path="url(#p23f732d9f0)" d="M 216 217 
L 216 184.276364 
L 216 103.985455 
L 216 23.694545 
L 216 -1 
" style="fill:none;stroke:#6495ed;stroke-linecap:square;stroke-width:1.5;"/>
   </g>
   <g id="line2d_29">
    <path clip-path="url(#p23f732d9f0)" d="M -1 -0.392727 
L 67.461818 -0.392727 
L 147.752727 -0.392727 
L 228.043636 -0.392727 
L 308.334545 -0.392727 
L 388.625455 -0.392727 
L 433 -0.392727 
" style="fill:none;stroke:#6495ed;stroke-linecap:square;stroke-width:1.5;"/>
   </g>
   <g id="line2d_30">
    <path clip-path="url(#p23f732d9f0)" d="M 252.130909 217 
L 252.130909 184.276364 
L 252.130909 103.985455 
L 252.130909 23.694545 
L 252.130909 -1 
" style="fill:none;stroke:#6495ed;stroke-linecap:square;stroke-width:1.5;"/>
   </g>
   <g id="line2d_31">
    <path clip-path="url(#p23f732d9f0)" style="fill:none;stroke:#6495ed;stroke-linecap:square;stroke-width:1.5;"/>
   </g>
   <g id="line2d_32">
    <path clip-path="url(#p23f732d9f0)" d="M 288.261818 217 
L 288.261818 184.276364 
L 288.261818 103.985455 
L 288.261818 23.694545 
L 288.261818 -1 
" style="fill:none;stroke:#6495ed;stroke-linecap:square;stroke-width:1.5;"/>
   </g>
   <g id="line2d_33">
    <path clip-path="url(#p23f732d9f0)" style="fill:none;stroke:#6495ed;stroke-linecap:square;stroke-width:1.5;"/>
   </g>
   <g id="line2d_34">
    <path clip-path="url(#p23f732d9f0)" d="M 324.392727 217 
L 324.392727 184.276364 
L 324.392727 103.985455 
L 324.392727 23.694545 
L 324.392727 -1 
" style="fill:none;stroke:#6495ed;stroke-linecap:square;stroke-width:1.5;"/>
   </g>
   <g id="line2d_35">
    <path clip-path="url(#p23f732d9f0)" style="fill:none;stroke:#6495ed;stroke-linecap:square;stroke-width:1.5;"/>
   </g>
   <g id="line2d_36">
    <path clip-path="url(#p23f732d9f0)" d="M 360.523636 217 
L 360.523636 184.276364 
L 360.523636 103.985455 
L 360.523636 23.694545 
L 360.523636 -1 
" style="fill:none;stroke:#6495ed;stroke-linecap:square;stroke-width:1.5;"/>
   </g>
   <g id="line2d_37">
    <path clip-path="url(#p23f732d9f0)" style="fill:none;stroke:#6495ed;stroke-linecap:square;stroke-width:1.5;"/>
   </g>
   <g id="line2d_38">
    <path clip-path="url(#p23f732d9f0)" d="M 396.654545 217 
L 396.654545 184.276364 
L 396.654545 103.985455 
L 396.654545 23.694545 
L 396.654545 -1 
" style="fill:none;stroke:#6495ed;stroke-linecap:square;stroke-width:1.5;"/>
   </g>
   <g id="line2d_39">
    <path clip-path="url(#p23f732d9f0)" style="fill:none;stroke:#6495ed;stroke-linecap:square;stroke-width:1.5;"/>
   </g>
   <g id="line2d_40">
    <path clip-path="url(#p23f732d9f0)" d="M 432.785455 217 
L 432.785455 184.276364 
L 432.785455 103.985455 
L 432.785455 23.694545 
L 432.785455 -1 
" style="fill:none;stroke:#6495ed;stroke-linecap:square;stroke-width:1.5;"/>
   </g>
   <g id="patch_2">
    <path clip-path="url(#p23f732d9f0)" d="M 143.738182 144.130909 
L 132.898909 147.744 
L 132.898909 144.672873 
L 107.607273 144.672873 
L 107.607273 143.588945 
L 132.898909 143.588945 
L 132.898909 140.517818 
z
" style="fill:#ff0000;stroke:#ff0000;stroke-linejoin:miter;"/>
   </g>
   <g id="patch_3">
    <path clip-path="url(#p23f732d9f0)" d="M 107.607273 108 
L 111.220364 118.839273 
L 108.149236 118.839273 
L 108.149236 144.130909 
L 107.065309 144.130909 
L 107.065309 118.839273 
L 103.994182 118.839273 
z
" style="fill:#0000ff;stroke:#0000ff;stroke-linejoin:miter;"/>
   </g>
   <g id="patch_4">
    <path clip-path="url(#p23f732d9f0)" d="M 179.869091 35.738182 
L 176.862818 46.761184 
L 174.307485 45.057629 
L 108.058214 144.431536 
L 107.156332 143.830282 
L 173.405603 44.456375 
L 170.850271 42.75282 
z
" style="fill:#008000;stroke:#008000;stroke-linejoin:miter;"/>
   </g>
   <g id="text_1">
    <!-- $e_1$ -->
    <defs>
     <path d="M 48.09375 32.234375 
Q 48.25 33.015625 48.3125 33.84375 
Q 48.390625 34.671875 48.390625 35.5 
Q 48.390625 41.453125 44.890625 44.921875 
Q 41.40625 48.390625 35.40625 48.390625 
Q 28.71875 48.390625 23.578125 44.15625 
Q 18.453125 39.9375 15.828125 32.171875 
z
M 55.90625 25.203125 
L 14.109375 25.203125 
Q 13.8125 23.34375 13.71875 22.265625 
Q 13.625 21.1875 13.625 20.40625 
Q 13.625 13.625 17.796875 9.90625 
Q 21.96875 6.203125 29.59375 6.203125 
Q 35.453125 6.203125 40.671875 7.515625 
Q 45.90625 8.84375 50.390625 11.375 
L 48.6875 2.484375 
Q 43.84375 0.53125 38.6875 -0.4375 
Q 33.546875 -1.421875 28.21875 -1.421875 
Q 16.84375 -1.421875 10.71875 4.015625 
Q 4.59375 9.46875 4.59375 19.484375 
Q 4.59375 28.03125 7.640625 35.375 
Q 10.6875 42.71875 16.609375 48.484375 
Q 20.40625 52.09375 25.65625 54.046875 
Q 30.90625 56 36.8125 56 
Q 46.09375 56 51.578125 50.4375 
Q 57.078125 44.875 57.078125 35.5 
Q 57.078125 33.25 56.78125 30.6875 
Q 56.5 28.125 55.90625 25.203125 
z
" id="DejaVuSans-Oblique-101"/>
     <path d="M 12.40625 8.296875 
L 28.515625 8.296875 
L 28.515625 63.921875 
L 10.984375 60.40625 
L 10.984375 69.390625 
L 28.421875 72.90625 
L 38.28125 72.90625 
L 38.28125 8.296875 
L 54.390625 8.296875 
L 54.390625 0 
L 12.40625 0 
z
" id="DejaVuSans-49"/>
    </defs>
    <g style="fill:#ff0000;" transform="translate(143.738182 140.517818)scale(0.14 -0.14)">
     <use xlink:href="#DejaVuSans-Oblique-101"/>
     <use transform="translate(61.523438 -16.40625)scale(0.7)" xlink:href="#DejaVuSans-49"/>
    </g>
   </g>
   <g id="text_2">
    <!-- $e_2$ -->
    <defs>
     <path d="M 19.1875 8.296875 
L 53.609375 8.296875 
L 53.609375 0 
L 7.328125 0 
L 7.328125 8.296875 
Q 12.9375 14.109375 22.625 23.890625 
Q 32.328125 33.6875 34.8125 36.53125 
Q 39.546875 41.84375 41.421875 45.53125 
Q 43.3125 49.21875 43.3125 52.78125 
Q 43.3125 58.59375 39.234375 62.25 
Q 35.15625 65.921875 28.609375 65.921875 
Q 23.96875 65.921875 18.8125 64.3125 
Q 13.671875 62.703125 7.8125 59.421875 
L 7.8125 69.390625 
Q 13.765625 71.78125 18.9375 73 
Q 24.125 74.21875 28.421875 74.21875 
Q 39.75 74.21875 46.484375 68.546875 
Q 53.21875 62.890625 53.21875 53.421875 
Q 53.21875 48.921875 51.53125 44.890625 
Q 49.859375 40.875 45.40625 35.40625 
Q 44.1875 33.984375 37.640625 27.21875 
Q 31.109375 20.453125 19.1875 8.296875 
z
" id="DejaVuSans-50"/>
    </defs>
    <g style="fill:#0000ff;" transform="translate(111.220364 108)scale(0.14 -0.14)">
     <use xlink:href="#DejaVuSans-Oblique-101"/>
     <use transform="translate(61.523438 -16.40625)scale(0.7)" xlink:href="#DejaVuSans-50"/>
    </g>
   </g>
   <g id="text_3">
    <!-- $v$ -->
    <defs>
     <path d="M 7.171875 54.6875 
L 16.703125 54.6875 
L 24.703125 8.203125 
L 50.875 54.6875 
L 60.40625 54.6875 
L 29.296875 0 
L 17.1875 0 
z
" id="DejaVuSans-Oblique-118"/>
    </defs>
    <g style="fill:#008000;" transform="translate(179.869091 35.738182)scale(0.14 -0.14)">
     <use transform="translate(0 0.3125)" xlink:href="#DejaVuSans-Oblique-118"/>
    </g>
   </g>
   <g id="text_4">
    <!-- O -->
    <defs>
     <path d="M 4.828125 34.859375 
Q 4.828125 52.6875 14.390625 62.765625 
Q 23.96875 72.859375 39.109375 72.859375 
Q 49.03125 72.859375 56.984375 68.109375 
Q 64.9375 63.375 69.109375 54.90625 
Q 73.296875 46.4375 73.296875 35.6875 
Q 73.296875 24.8125 68.890625 16.21875 
Q 64.5 7.625 56.4375 3.203125 
Q 48.390625 -1.21875 39.0625 -1.21875 
Q 28.953125 -1.21875 20.984375 3.65625 
Q 13.03125 8.546875 8.921875 16.984375 
Q 4.828125 25.4375 4.828125 34.859375 
z
M 14.59375 34.71875 
Q 14.59375 21.78125 21.546875 14.328125 
Q 28.515625 6.890625 39.015625 6.890625 
Q 49.703125 6.890625 56.609375 14.40625 
Q 63.53125 21.921875 63.53125 35.75 
Q 63.53125 44.484375 60.578125 51 
Q 57.625 57.515625 51.921875 61.109375 
Q 46.234375 64.703125 39.15625 64.703125 
Q 29.109375 64.703125 21.84375 57.78125 
Q 14.59375 50.875 14.59375 34.71875 
z
" id="ArialMT-79"/>
    </defs>
    <g transform="translate(96.768 154.970182)scale(0.14 -0.14)">
     <use xlink:href="#ArialMT-79"/>
    </g>
   </g>
   <g id="text_5">
    <!-- -2 -->
    <defs>
     <path d="M 3.171875 21.484375 
L 3.171875 30.328125 
L 30.171875 30.328125 
L 30.171875 21.484375 
z
" id="ArialMT-45"/>
     <path d="M 50.34375 8.453125 
L 50.34375 0 
L 3.03125 0 
Q 2.9375 3.171875 4.046875 6.109375 
Q 5.859375 10.9375 9.828125 15.625 
Q 13.8125 20.3125 21.34375 26.46875 
Q 33.015625 36.03125 37.109375 41.625 
Q 41.21875 47.21875 41.21875 52.203125 
Q 41.21875 57.421875 37.46875 61 
Q 33.734375 64.59375 27.734375 64.59375 
Q 21.390625 64.59375 17.578125 60.78125 
Q 13.765625 56.984375 13.71875 50.25 
L 4.6875 51.171875 
Q 5.609375 61.28125 11.65625 66.578125 
Q 17.71875 71.875 27.9375 71.875 
Q 38.234375 71.875 44.234375 66.15625 
Q 50.25 60.453125 50.25 52 
Q 50.25 47.703125 48.484375 43.546875 
Q 46.734375 39.40625 42.65625 34.8125 
Q 38.578125 30.21875 29.109375 22.21875 
Q 21.1875 15.578125 18.9375 13.203125 
Q 16.703125 10.84375 15.234375 8.453125 
z
" id="ArialMT-50"/>
    </defs>
    <g transform="translate(35.345455 158.583273)scale(0.14 -0.14)">
     <use xlink:href="#ArialMT-45"/>
     <use x="33.300781" xlink:href="#ArialMT-50"/>
    </g>
   </g>
   <g id="text_6">
    <!-- -1 -->
    <defs>
     <path d="M 37.25 0 
L 28.46875 0 
L 28.46875 56 
Q 25.296875 52.984375 20.140625 49.953125 
Q 14.984375 46.921875 10.890625 45.40625 
L 10.890625 53.90625 
Q 18.265625 57.375 23.78125 62.296875 
Q 29.296875 67.234375 31.59375 71.875 
L 37.25 71.875 
z
" id="ArialMT-49"/>
    </defs>
    <g transform="translate(71.476364 158.583273)scale(0.14 -0.14)">
     <use xlink:href="#ArialMT-45"/>
     <use x="33.300781" xlink:href="#ArialMT-49"/>
    </g>
   </g>
   <g id="text_7">
    <!-- -1 -->
    <g transform="translate(93.154909 180.261818)scale(0.14 -0.14)">
     <use xlink:href="#ArialMT-45"/>
     <use x="33.300781" xlink:href="#ArialMT-49"/>
    </g>
   </g>
   <g id="text_8">
    <!-- 1 -->
    <g transform="translate(143.738182 158.583273)scale(0.14 -0.14)">
     <use xlink:href="#ArialMT-49"/>
    </g>
   </g>
   <g id="text_9">
    <!-- 1 -->
    <g transform="translate(93.154909 108)scale(0.14 -0.14)">
     <use xlink:href="#ArialMT-49"/>
    </g>
   </g>
   <g id="text_10">
    <!-- 2 -->
    <g transform="translate(179.869091 158.583273)scale(0.14 -0.14)">
     <use xlink:href="#ArialMT-50"/>
    </g>
   </g>
   <g id="text_11">
    <!-- 2 -->
    <g transform="translate(93.154909 71.869091)scale(0.14 -0.14)">
     <use xlink:href="#ArialMT-50"/>
    </g>
   </g>
   <g id="text_12">
    <!-- 3 -->
    <defs>
     <path d="M 4.203125 18.890625 
L 12.984375 20.0625 
Q 14.5 12.59375 18.140625 9.296875 
Q 21.78125 6 27 6 
Q 33.203125 6 37.46875 10.296875 
Q 41.75 14.59375 41.75 20.953125 
Q 41.75 27 37.796875 30.921875 
Q 33.84375 34.859375 27.734375 34.859375 
Q 25.25 34.859375 21.53125 33.890625 
L 22.515625 41.609375 
Q 23.390625 41.5 23.921875 41.5 
Q 29.546875 41.5 34.03125 44.421875 
Q 38.53125 47.359375 38.53125 53.46875 
Q 38.53125 58.296875 35.25 61.46875 
Q 31.984375 64.65625 26.8125 64.65625 
Q 21.6875 64.65625 18.265625 61.421875 
Q 14.84375 58.203125 13.875 51.765625 
L 5.078125 53.328125 
Q 6.6875 62.15625 12.390625 67.015625 
Q 18.109375 71.875 26.609375 71.875 
Q 32.46875 71.875 37.390625 69.359375 
Q 42.328125 66.84375 44.9375 62.5 
Q 47.5625 58.15625 47.5625 53.265625 
Q 47.5625 48.640625 45.0625 44.828125 
Q 42.578125 41.015625 37.703125 38.765625 
Q 44.046875 37.3125 47.5625 32.6875 
Q 51.078125 28.078125 51.078125 21.140625 
Q 51.078125 11.765625 44.234375 5.25 
Q 37.40625 -1.265625 26.953125 -1.265625 
Q 17.53125 -1.265625 11.296875 4.34375 
Q 5.078125 9.96875 4.203125 18.890625 
z
" id="ArialMT-51"/>
    </defs>
    <g transform="translate(93.154909 35.738182)scale(0.14 -0.14)">
     <use xlink:href="#ArialMT-51"/>
    </g>
   </g>
  </g>
  <g id="axes_2">
   <g id="line2d_41">
    <path clip-path="url(#p340af6c4c1)" style="fill:none;stroke:#6495ed;stroke-linecap:square;stroke-width:1.5;"/>
   </g>
   <g id="line2d_42">
    <path clip-path="url(#p340af6c4c1)" d="M 35.649091 217 
L 23.301818 192.305455 
L -1 143.701818 
" style="fill:none;stroke:#6495ed;stroke-linecap:square;stroke-width:1.5;"/>
   </g>
   <g id="line2d_43">
    <path clip-path="url(#p340af6c4c1)" style="fill:none;stroke:#6495ed;stroke-linecap:square;stroke-width:1.5;"/>
   </g>
   <g id="line2d_44">
    <path clip-path="url(#p340af6c4c1)" d="M 68.166909 217 
L 59.432727 199.531636 
L 19.287273 119.240727 
L -1 78.666182 
" style="fill:none;stroke:#6495ed;stroke-linecap:square;stroke-width:1.5;"/>
   </g>
   <g id="line2d_45">
    <path clip-path="url(#p340af6c4c1)" style="fill:none;stroke:#6495ed;stroke-linecap:square;stroke-width:1.5;"/>
   </g>
   <g id="line2d_46">
    <path clip-path="url(#p340af6c4c1)" d="M 100.684727 217 
L 95.563636 206.757818 
L 55.418182 126.466909 
L 15.272727 46.176 
L -1 13.630545 
" style="fill:none;stroke:#6495ed;stroke-linecap:square;stroke-width:1.5;"/>
   </g>
   <g id="line2d_47">
    <path clip-path="url(#p340af6c4c1)" style="fill:none;stroke:#6495ed;stroke-linecap:square;stroke-width:1.5;"/>
   </g>
   <g id="line2d_48">
    <path clip-path="url(#p340af6c4c1)" d="M 133.202545 217 
L 131.694545 213.984 
L 91.549091 133.693091 
L 51.403636 53.402182 
L 24.202545 -1 
" style="fill:none;stroke:#6495ed;stroke-linecap:square;stroke-width:1.5;"/>
   </g>
   <g id="line2d_49">
    <path clip-path="url(#p340af6c4c1)" style="fill:none;stroke:#6495ed;stroke-linecap:square;stroke-width:1.5;"/>
   </g>
   <g id="line2d_50">
    <path clip-path="url(#p340af6c4c1)" d="M 165.720364 217 
L 127.68 140.919273 
L 87.534545 60.628364 
L 56.720364 -1 
" style="fill:none;stroke:#6495ed;stroke-linecap:square;stroke-width:1.5;"/>
   </g>
   <g id="line2d_51">
    <path clip-path="url(#p340af6c4c1)" style="fill:none;stroke:#6495ed;stroke-linecap:square;stroke-width:1.5;"/>
   </g>
   <g id="line2d_52">
    <path clip-path="url(#p340af6c4c1)" d="M 198.238182 217 
L 163.810909 148.145455 
L 123.665455 67.854545 
L 89.238182 -1 
" style="fill:none;stroke:#6495ed;stroke-linecap:square;stroke-width:1.5;"/>
   </g>
   <g id="line2d_53">
    <path clip-path="url(#p340af6c4c1)" d="M 35.345455 216.392727 
L 38.381818 217 
" style="fill:none;stroke:#6495ed;stroke-linecap:square;stroke-width:1.5;"/>
   </g>
   <g id="line2d_54">
    <path clip-path="url(#p340af6c4c1)" d="M 230.756 217 
L 199.941818 155.371636 
L 159.796364 75.080727 
L 121.756 -1 
" style="fill:none;stroke:#6495ed;stroke-linecap:square;stroke-width:1.5;"/>
   </g>
   <g id="line2d_55">
    <path clip-path="url(#p340af6c4c1)" d="M 17.28 180.261818 
L 97.570909 196.32 
L 177.861818 212.378182 
L 200.970909 217 
" style="fill:none;stroke:#6495ed;stroke-linecap:square;stroke-width:1.5;"/>
   </g>
   <g id="line2d_56">
    <path clip-path="url(#p340af6c4c1)" d="M 263.273818 217 
L 236.072727 162.597818 
L 195.927273 82.306909 
L 155.781818 2.016 
L 154.273818 -1 
" style="fill:none;stroke:#6495ed;stroke-linecap:square;stroke-width:1.5;"/>
   </g>
   <g id="line2d_57">
    <path clip-path="url(#p340af6c4c1)" d="M -0.785455 144.130909 
L 79.505455 160.189091 
L 159.796364 176.247273 
L 240.087273 192.305455 
L 320.378182 208.363636 
L 363.56 217 
" style="fill:none;stroke:#6495ed;stroke-linecap:square;stroke-width:1.5;"/>
   </g>
   <g id="line2d_58">
    <path clip-path="url(#p340af6c4c1)" d="M 295.791636 217 
L 272.203636 169.824 
L 232.058182 89.533091 
L 191.912727 9.242182 
L 186.791636 -1 
" style="fill:none;stroke:#6495ed;stroke-linecap:square;stroke-width:1.5;"/>
   </g>
   <g id="line2d_59">
    <path clip-path="url(#p340af6c4c1)" d="M -1 111.570182 
L 61.44 124.058182 
L 141.730909 140.116364 
L 222.021818 156.174545 
L 302.312727 172.232727 
L 382.603636 188.290909 
L 433 198.370182 
" style="fill:none;stroke:#6495ed;stroke-linecap:square;stroke-width:1.5;"/>
   </g>
   <g id="line2d_60">
    <path clip-path="url(#p340af6c4c1)" d="M 328.309455 217 
L 308.334545 177.050182 
L 268.189091 96.759273 
L 228.043636 16.468364 
L 219.309455 -1 
" style="fill:none;stroke:#6495ed;stroke-linecap:square;stroke-width:1.5;"/>
   </g>
   <g id="line2d_61">
    <path clip-path="url(#p340af6c4c1)" d="M -1 79.052364 
L 43.374545 87.927273 
L 123.665455 103.985455 
L 203.956364 120.043636 
L 284.247273 136.101818 
L 364.538182 152.16 
L 433 165.852364 
" style="fill:none;stroke:#000000;stroke-linecap:square;stroke-width:1.5;"/>
   </g>
   <g id="line2d_62">
    <path clip-path="url(#p340af6c4c1)" d="M 360.827273 217 
L 344.465455 184.276364 
L 304.32 103.985455 
L 264.174545 23.694545 
L 251.827273 -1 
" style="fill:none;stroke:#000000;stroke-linecap:square;stroke-width:1.5;"/>
   </g>
   <g id="line2d_63">
    <path clip-path="url(#p340af6c4c1)" d="M -1 46.534545 
L 25.309091 51.796364 
L 105.6 67.854545 
L 185.890909 83.912727 
L 266.181818 99.970909 
L 346.472727 116.029091 
L 426.763636 132.087273 
L 433 133.334545 
" style="fill:none;stroke:#6495ed;stroke-linecap:square;stroke-width:1.5;"/>
   </g>
   <g id="line2d_64">
    <path clip-path="url(#p340af6c4c1)" d="M 393.345091 217 
L 380.596364 191.502545 
L 340.450909 111.211636 
L 300.305455 30.920727 
L 284.345091 -1 
" style="fill:none;stroke:#6495ed;stroke-linecap:square;stroke-width:1.5;"/>
   </g>
   <g id="line2d_65">
    <path clip-path="url(#p340af6c4c1)" d="M -1 14.016727 
L 7.243636 15.665455 
L 87.534545 31.723636 
L 167.825455 47.781818 
L 248.116364 63.84 
L 328.407273 79.898182 
L 408.698182 95.956364 
L 433 100.816727 
" style="fill:none;stroke:#6495ed;stroke-linecap:square;stroke-width:1.5;"/>
   </g>
   <g id="line2d_66">
    <path clip-path="url(#p340af6c4c1)" d="M 425.862909 217 
L 416.727273 198.728727 
L 376.581818 118.437818 
L 336.436364 38.146909 
L 316.862909 -1 
" style="fill:none;stroke:#6495ed;stroke-linecap:square;stroke-width:1.5;"/>
   </g>
   <g id="line2d_67">
    <path clip-path="url(#p340af6c4c1)" d="M 86.505455 -1 
L 149.76 11.650909 
L 230.050909 27.709091 
L 310.341818 43.767273 
L 390.632727 59.825455 
L 433 68.298909 
" style="fill:none;stroke:#6495ed;stroke-linecap:square;stroke-width:1.5;"/>
   </g>
   <g id="line2d_68">
    <path clip-path="url(#p340af6c4c1)" d="M 433 166.238545 
L 412.712727 125.664 
L 372.567273 45.373091 
L 349.380727 -1 
" style="fill:none;stroke:#6495ed;stroke-linecap:square;stroke-width:1.5;"/>
   </g>
   <g id="line2d_69">
    <path clip-path="url(#p340af6c4c1)" d="M 249.094545 -1 
L 292.276364 7.636364 
L 372.567273 23.694545 
L 433 35.781091 
" style="fill:none;stroke:#6495ed;stroke-linecap:square;stroke-width:1.5;"/>
   </g>
   <g id="line2d_70">
    <path clip-path="url(#p340af6c4c1)" d="M 433 101.202909 
L 408.698182 52.599273 
L 381.898545 -1 
" style="fill:none;stroke:#6495ed;stroke-linecap:square;stroke-width:1.5;"/>
   </g>
   <g id="line2d_71">
    <path clip-path="url(#p340af6c4c1)" d="M 411.683636 -1 
L 433 3.263273 
" style="fill:none;stroke:#6495ed;stroke-linecap:square;stroke-width:1.5;"/>
   </g>
   <g id="line2d_72">
    <path clip-path="url(#p340af6c4c1)" d="M 433 36.167273 
L 414.416364 -1 
" style="fill:none;stroke:#6495ed;stroke-linecap:square;stroke-width:1.5;"/>
   </g>
   <g id="line2d_73">
    <path clip-path="url(#p340af6c4c1)" style="fill:none;stroke:#6495ed;stroke-linecap:square;stroke-width:1.5;"/>
   </g>
   <g id="line2d_74">
    <path clip-path="url(#p340af6c4c1)" style="fill:none;stroke:#6495ed;stroke-linecap:square;stroke-width:1.5;"/>
   </g>
   <g id="line2d_75">
    <path clip-path="url(#p340af6c4c1)" style="fill:none;stroke:#6495ed;stroke-linecap:square;stroke-width:1.5;"/>
   </g>
   <g id="line2d_76">
    <path clip-path="url(#p340af6c4c1)" style="fill:none;stroke:#6495ed;stroke-linecap:square;stroke-width:1.5;"/>
   </g>
   <g id="line2d_77">
    <path clip-path="url(#p340af6c4c1)" style="fill:none;stroke:#6495ed;stroke-linecap:square;stroke-width:1.5;"/>
   </g>
   <g id="line2d_78">
    <path clip-path="url(#p340af6c4c1)" style="fill:none;stroke:#6495ed;stroke-linecap:square;stroke-width:1.5;"/>
   </g>
   <g id="line2d_79">
    <path clip-path="url(#p340af6c4c1)" style="fill:none;stroke:#6495ed;stroke-linecap:square;stroke-width:1.5;"/>
   </g>
   <g id="line2d_80">
    <path clip-path="url(#p340af6c4c1)" style="fill:none;stroke:#6495ed;stroke-linecap:square;stroke-width:1.5;"/>
   </g>
   <g id="patch_5">
    <path clip-path="url(#p340af6c4c1)" d="M 360.523636 151.357091 
L 349.18627 152.774262 
L 349.788567 149.762774 
L 324.286439 144.662348 
L 324.499015 143.59947 
L 350.001143 148.699896 
L 350.60344 145.688408 
z
" style="fill:#ff0000;stroke:#ff0000;stroke-linejoin:miter;"/>
   </g>
   <g id="patch_6">
    <path clip-path="url(#p340af6c4c1)" d="M 306.327273 108 
L 314.40639 116.079117 
L 311.65949 117.452567 
L 324.877474 143.888536 
L 323.90798 144.373283 
L 310.689996 117.937314 
L 307.943096 119.310764 
z
" style="fill:#0000ff;stroke:#0000ff;stroke-linejoin:miter;"/>
   </g>
   <g id="patch_7">
    <path clip-path="url(#p340af6c4c1)" d="M 342.458182 50.190545 
L 343.959292 61.517104 
L 340.943425 60.93713 
L 324.924939 144.233258 
L 323.860515 144.028561 
L 339.879002 60.732433 
L 336.863135 60.152458 
z
" style="fill:#008000;stroke:#008000;stroke-linejoin:miter;"/>
   </g>
   <g id="text_13">
    <!-- $e_1$ -->
    <g style="fill:#ff0000;" transform="translate(358.717091 147.744)scale(0.14 -0.14)">
     <use xlink:href="#DejaVuSans-Oblique-101"/>
     <use transform="translate(61.523438 -16.40625)scale(0.7)" xlink:href="#DejaVuSans-49"/>
    </g>
   </g>
   <g id="text_14">
    <!-- $e_2$ -->
    <g style="fill:#0000ff;" transform="translate(309.940364 108.722618)scale(0.14 -0.14)">
     <use xlink:href="#DejaVuSans-Oblique-101"/>
     <use transform="translate(61.523438 -16.40625)scale(0.7)" xlink:href="#DejaVuSans-50"/>
    </g>
   </g>
   <g id="text_15">
    <!-- $v$ -->
    <g style="fill:#008000;" transform="translate(342.458182 50.190545)scale(0.14 -0.14)">
     <use transform="translate(0 0.3125)" xlink:href="#DejaVuSans-Oblique-118"/>
    </g>
   </g>
   <g id="text_16">
    <!-- O -->
    <g transform="translate(313.553455 154.970182)scale(0.14 -0.14)">
     <use xlink:href="#ArialMT-79"/>
    </g>
   </g>
   <g id="text_17">
    <!-- -2 -->
    <g transform="translate(259.357091 144.130909)scale(0.14 -0.14)">
     <use xlink:href="#ArialMT-45"/>
     <use x="33.300781" xlink:href="#ArialMT-50"/>
    </g>
   </g>
   <g id="text_18">
    <!-- -1 -->
    <g transform="translate(295.488 151.357091)scale(0.14 -0.14)">
     <use xlink:href="#ArialMT-45"/>
     <use x="33.300781" xlink:href="#ArialMT-49"/>
    </g>
   </g>
   <g id="text_19">
    <!-- -1 -->
    <g transform="translate(328.005818 177.371345)scale(0.14 -0.14)">
     <use xlink:href="#ArialMT-45"/>
     <use x="33.300781" xlink:href="#ArialMT-49"/>
    </g>
   </g>
   <g id="text_20">
    <!-- 1 -->
    <g transform="translate(367.749818 165.809455)scale(0.14 -0.14)">
     <use xlink:href="#ArialMT-49"/>
    </g>
   </g>
   <g id="text_21">
    <!-- 1 -->
    <g transform="translate(291.874909 105.109527)scale(0.14 -0.14)">
     <use xlink:href="#ArialMT-49"/>
    </g>
   </g>
   <g id="text_22">
    <!-- 2 -->
    <g transform="translate(403.880727 173.035636)scale(0.14 -0.14)">
     <use xlink:href="#ArialMT-50"/>
    </g>
   </g>
   <g id="text_23">
    <!-- 2 -->
    <g transform="translate(273.809455 68.978618)scale(0.14 -0.14)">
     <use xlink:href="#ArialMT-50"/>
    </g>
   </g>
   <g id="text_24">
    <!-- 3 -->
    <g transform="translate(255.744 32.847709)scale(0.14 -0.14)">
     <use xlink:href="#ArialMT-51"/>
    </g>
   </g>
  </g>
 </g>
 <defs>
  <clipPath id="p23f732d9f0">
   <rect height="180.654545" width="180.654545" x="17.28" y="17.672727"/>
  </clipPath>
  <clipPath id="p340af6c4c1">
   <rect height="180.654545" width="180.654545" x="234.065455" y="17.672727"/>
  </clipPath>
 </defs>
</svg>
