<?xml version="1.0" encoding="utf-8" standalone="no"?>
<!DOCTYPE svg PUBLIC "-//W3C//DTD SVG 1.1//EN"
  "http://www.w3.org/Graphics/SVG/1.1/DTD/svg11.dtd">
<!-- Created with matplotlib (https://matplotlib.org/) -->
<svg height="216pt" version="1.1" viewBox="0 0 216 216" width="216pt" xmlns="http://www.w3.org/2000/svg" xmlns:xlink="http://www.w3.org/1999/xlink">
 <metadata>
  <rdf:RDF xmlns:cc="http://creativecommons.org/ns#" xmlns:dc="http://purl.org/dc/elements/1.1/" xmlns:rdf="http://www.w3.org/1999/02/22-rdf-syntax-ns#">
   <cc:Work>
    <dc:type rdf:resource="http://purl.org/dc/dcmitype/StillImage"/>
    <dc:date>2020-09-29T00:03:22.319067</dc:date>
    <dc:format>image/svg+xml</dc:format>
    <dc:creator>
     <cc:Agent>
      <dc:title>Matplotlib v3.3.1, https://matplotlib.org/</dc:title>
     </cc:Agent>
    </dc:creator>
   </cc:Work>
  </rdf:RDF>
 </metadata>
 <defs>
  <style type="text/css">*{stroke-linecap:butt;stroke-linejoin:round;}</style>
 </defs>
 <g id="figure_1">
  <g id="patch_1">
   <path d="M 0 216 
L 216 216 
L 216 0 
L 0 0 
z
" style="fill:#ffffff;"/>
  </g>
  <g id="axes_1">
   <g id="line2d_1">
    <path clip-path="url(#p59b1af0913)" style="fill:none;stroke:#6495ed;stroke-linecap:square;stroke-opacity:0.3;stroke-width:1.5;"/>
   </g>
   <g id="line2d_2">
    <path clip-path="url(#p59b1af0913)" style="fill:none;stroke:#6495ed;stroke-linecap:square;stroke-opacity:0.3;stroke-width:1.5;"/>
   </g>
   <g id="line2d_3">
    <path clip-path="url(#p59b1af0913)" style="fill:none;stroke:#6495ed;stroke-linecap:square;stroke-opacity:0.3;stroke-width:1.5;"/>
   </g>
   <g id="line2d_4">
    <path clip-path="url(#p59b1af0913)" style="fill:none;stroke:#6495ed;stroke-linecap:square;stroke-opacity:0.3;stroke-width:1.5;"/>
   </g>
   <g id="line2d_5">
    <path clip-path="url(#p59b1af0913)" style="fill:none;stroke:#6495ed;stroke-linecap:square;stroke-opacity:0.3;stroke-width:1.5;"/>
   </g>
   <g id="line2d_6">
    <path clip-path="url(#p59b1af0913)" style="fill:none;stroke:#6495ed;stroke-linecap:square;stroke-opacity:0.3;stroke-width:1.5;"/>
   </g>
   <g id="line2d_7">
    <path clip-path="url(#p59b1af0913)" style="fill:none;stroke:#6495ed;stroke-linecap:square;stroke-opacity:0.3;stroke-width:1.5;"/>
   </g>
   <g id="line2d_8">
    <path clip-path="url(#p59b1af0913)" style="fill:none;stroke:#6495ed;stroke-linecap:square;stroke-opacity:0.3;stroke-width:1.5;"/>
   </g>
   <g id="line2d_9">
    <path clip-path="url(#p59b1af0913)" style="fill:none;stroke:#6495ed;stroke-linecap:square;stroke-opacity:0.3;stroke-width:1.5;"/>
   </g>
   <g id="line2d_10">
    <path clip-path="url(#p59b1af0913)" style="fill:none;stroke:#6495ed;stroke-linecap:square;stroke-opacity:0.3;stroke-width:1.5;"/>
   </g>
   <g id="line2d_11">
    <path clip-path="url(#p59b1af0913)" style="fill:none;stroke:#6495ed;stroke-linecap:square;stroke-opacity:0.3;stroke-width:1.5;"/>
   </g>
   <g id="line2d_12">
    <path clip-path="url(#p59b1af0913)" style="fill:none;stroke:#6495ed;stroke-linecap:square;stroke-opacity:0.3;stroke-width:1.5;"/>
   </g>
   <g id="line2d_13">
    <path clip-path="url(#p59b1af0913)" style="fill:none;stroke:#6495ed;stroke-linecap:square;stroke-opacity:0.3;stroke-width:1.5;"/>
   </g>
   <g id="line2d_14">
    <path clip-path="url(#p59b1af0913)" style="fill:none;stroke:#6495ed;stroke-linecap:square;stroke-opacity:0.3;stroke-width:1.5;"/>
   </g>
   <g id="line2d_15">
    <path clip-path="url(#p59b1af0913)" style="fill:none;stroke:#6495ed;stroke-linecap:square;stroke-opacity:0.3;stroke-width:1.5;"/>
   </g>
   <g id="line2d_16">
    <path clip-path="url(#p59b1af0913)" style="fill:none;stroke:#6495ed;stroke-linecap:square;stroke-opacity:0.3;stroke-width:1.5;"/>
   </g>
   <g id="line2d_17">
    <path clip-path="url(#p59b1af0913)" d="M -1 205.2 
L 45.36 205.2 
L 131.76 205.2 
L 217 205.2 
" style="fill:none;stroke:#6495ed;stroke-linecap:square;stroke-opacity:0.3;stroke-width:1.5;"/>
   </g>
   <g id="line2d_18">
    <path clip-path="url(#p59b1af0913)" d="M 10.8 217 
L 10.8 170.64 
L 10.8 84.24 
L 10.8 -1 
" style="fill:none;stroke:#6495ed;stroke-linecap:square;stroke-opacity:0.3;stroke-width:1.5;"/>
   </g>
   <g id="line2d_19">
    <path clip-path="url(#p59b1af0913)" d="M -1 166.32 
L 45.36 166.32 
L 131.76 166.32 
L 217 166.32 
" style="fill:none;stroke:#6495ed;stroke-linecap:square;stroke-opacity:0.3;stroke-width:1.5;"/>
   </g>
   <g id="line2d_20">
    <path clip-path="url(#p59b1af0913)" d="M 49.68 217 
L 49.68 170.64 
L 49.68 84.24 
L 49.68 -1 
" style="fill:none;stroke:#6495ed;stroke-linecap:square;stroke-opacity:0.3;stroke-width:1.5;"/>
   </g>
   <g id="line2d_21">
    <path clip-path="url(#p59b1af0913)" d="M -1 127.44 
L 45.36 127.44 
L 131.76 127.44 
L 217 127.44 
" style="fill:none;stroke:#000000;stroke-linecap:square;stroke-opacity:0.3;stroke-width:1.5;"/>
   </g>
   <g id="line2d_22">
    <path clip-path="url(#p59b1af0913)" d="M 88.56 217 
L 88.56 170.64 
L 88.56 84.24 
L 88.56 -1 
" style="fill:none;stroke:#000000;stroke-linecap:square;stroke-opacity:0.3;stroke-width:1.5;"/>
   </g>
   <g id="line2d_23">
    <path clip-path="url(#p59b1af0913)" d="M -1 88.56 
L 45.36 88.56 
L 131.76 88.56 
L 217 88.56 
" style="fill:none;stroke:#6495ed;stroke-linecap:square;stroke-opacity:0.3;stroke-width:1.5;"/>
   </g>
   <g id="line2d_24">
    <path clip-path="url(#p59b1af0913)" d="M 127.44 217 
L 127.44 170.64 
L 127.44 84.24 
L 127.44 -1 
" style="fill:none;stroke:#6495ed;stroke-linecap:square;stroke-opacity:0.3;stroke-width:1.5;"/>
   </g>
   <g id="line2d_25">
    <path clip-path="url(#p59b1af0913)" d="M -1 49.68 
L 45.36 49.68 
L 131.76 49.68 
L 217 49.68 
" style="fill:none;stroke:#6495ed;stroke-linecap:square;stroke-opacity:0.3;stroke-width:1.5;"/>
   </g>
   <g id="line2d_26">
    <path clip-path="url(#p59b1af0913)" d="M 166.32 217 
L 166.32 170.64 
L 166.32 84.24 
L 166.32 -1 
" style="fill:none;stroke:#6495ed;stroke-linecap:square;stroke-opacity:0.3;stroke-width:1.5;"/>
   </g>
   <g id="line2d_27">
    <path clip-path="url(#p59b1af0913)" d="M -1 10.8 
L 45.36 10.8 
L 131.76 10.8 
L 217 10.8 
" style="fill:none;stroke:#6495ed;stroke-linecap:square;stroke-opacity:0.3;stroke-width:1.5;"/>
   </g>
   <g id="line2d_28">
    <path clip-path="url(#p59b1af0913)" d="M 205.2 217 
L 205.2 170.64 
L 205.2 84.24 
L 205.2 -1 
" style="fill:none;stroke:#6495ed;stroke-linecap:square;stroke-opacity:0.3;stroke-width:1.5;"/>
   </g>
   <g id="line2d_29">
    <path clip-path="url(#p59b1af0913)" style="fill:none;stroke:#6495ed;stroke-linecap:square;stroke-opacity:0.3;stroke-width:1.5;"/>
   </g>
   <g id="line2d_30">
    <path clip-path="url(#p59b1af0913)" style="fill:none;stroke:#6495ed;stroke-linecap:square;stroke-opacity:0.3;stroke-width:1.5;"/>
   </g>
   <g id="line2d_31">
    <path clip-path="url(#p59b1af0913)" style="fill:none;stroke:#6495ed;stroke-linecap:square;stroke-opacity:0.3;stroke-width:1.5;"/>
   </g>
   <g id="line2d_32">
    <path clip-path="url(#p59b1af0913)" style="fill:none;stroke:#6495ed;stroke-linecap:square;stroke-opacity:0.3;stroke-width:1.5;"/>
   </g>
   <g id="line2d_33">
    <path clip-path="url(#p59b1af0913)" style="fill:none;stroke:#6495ed;stroke-linecap:square;stroke-opacity:0.3;stroke-width:1.5;"/>
   </g>
   <g id="line2d_34">
    <path clip-path="url(#p59b1af0913)" style="fill:none;stroke:#6495ed;stroke-linecap:square;stroke-opacity:0.3;stroke-width:1.5;"/>
   </g>
   <g id="line2d_35">
    <path clip-path="url(#p59b1af0913)" style="fill:none;stroke:#6495ed;stroke-linecap:square;stroke-opacity:0.3;stroke-width:1.5;"/>
   </g>
   <g id="line2d_36">
    <path clip-path="url(#p59b1af0913)" style="fill:none;stroke:#6495ed;stroke-linecap:square;stroke-opacity:0.3;stroke-width:1.5;"/>
   </g>
   <g id="line2d_37">
    <path clip-path="url(#p59b1af0913)" style="fill:none;stroke:#6495ed;stroke-linecap:square;stroke-opacity:0.3;stroke-width:1.5;"/>
   </g>
   <g id="line2d_38">
    <path clip-path="url(#p59b1af0913)" style="fill:none;stroke:#6495ed;stroke-linecap:square;stroke-opacity:0.3;stroke-width:1.5;"/>
   </g>
   <g id="line2d_39">
    <path clip-path="url(#p59b1af0913)" style="fill:none;stroke:#6495ed;stroke-linecap:square;stroke-opacity:0.3;stroke-width:1.5;"/>
   </g>
   <g id="line2d_40">
    <path clip-path="url(#p59b1af0913)" style="fill:none;stroke:#6495ed;stroke-linecap:square;stroke-opacity:0.3;stroke-width:1.5;"/>
   </g>
   <g id="line2d_41">
    <path clip-path="url(#p59b1af0913)" style="fill:none;stroke:#6495ed;stroke-linecap:square;stroke-width:1.5;"/>
   </g>
   <g id="line2d_42">
    <path clip-path="url(#p59b1af0913)" style="fill:none;stroke:#6495ed;stroke-linecap:square;stroke-width:1.5;"/>
   </g>
   <g id="line2d_43">
    <path clip-path="url(#p59b1af0913)" style="fill:none;stroke:#6495ed;stroke-linecap:square;stroke-width:1.5;"/>
   </g>
   <g id="line2d_44">
    <path clip-path="url(#p59b1af0913)" style="fill:none;stroke:#6495ed;stroke-linecap:square;stroke-width:1.5;"/>
   </g>
   <g id="line2d_45">
    <path clip-path="url(#p59b1af0913)" style="fill:none;stroke:#6495ed;stroke-linecap:square;stroke-width:1.5;"/>
   </g>
   <g id="line2d_46">
    <path clip-path="url(#p59b1af0913)" style="fill:none;stroke:#6495ed;stroke-linecap:square;stroke-width:1.5;"/>
   </g>
   <g id="line2d_47">
    <path clip-path="url(#p59b1af0913)" style="fill:none;stroke:#6495ed;stroke-linecap:square;stroke-width:1.5;"/>
   </g>
   <g id="line2d_48">
    <path clip-path="url(#p59b1af0913)" style="fill:none;stroke:#6495ed;stroke-linecap:square;stroke-width:1.5;"/>
   </g>
   <g id="line2d_49">
    <path clip-path="url(#p59b1af0913)" style="fill:none;stroke:#6495ed;stroke-linecap:square;stroke-width:1.5;"/>
   </g>
   <g id="line2d_50">
    <path clip-path="url(#p59b1af0913)" style="fill:none;stroke:#6495ed;stroke-linecap:square;stroke-width:1.5;"/>
   </g>
   <g id="line2d_51">
    <path clip-path="url(#p59b1af0913)" style="fill:none;stroke:#6495ed;stroke-linecap:square;stroke-width:1.5;"/>
   </g>
   <g id="line2d_52">
    <path clip-path="url(#p59b1af0913)" style="fill:none;stroke:#6495ed;stroke-linecap:square;stroke-width:1.5;"/>
   </g>
   <g id="line2d_53">
    <path clip-path="url(#p59b1af0913)" style="fill:none;stroke:#6495ed;stroke-linecap:square;stroke-width:1.5;"/>
   </g>
   <g id="line2d_54">
    <path clip-path="url(#p59b1af0913)" style="fill:none;stroke:#6495ed;stroke-linecap:square;stroke-width:1.5;"/>
   </g>
   <g id="line2d_55">
    <path clip-path="url(#p59b1af0913)" style="fill:none;stroke:#6495ed;stroke-linecap:square;stroke-width:1.5;"/>
   </g>
   <g id="line2d_56">
    <path clip-path="url(#p59b1af0913)" style="fill:none;stroke:#6495ed;stroke-linecap:square;stroke-width:1.5;"/>
   </g>
   <g id="line2d_57">
    <path clip-path="url(#p59b1af0913)" d="M 142.72 217 
L 217 179.86 
" style="fill:none;stroke:#6495ed;stroke-linecap:square;stroke-width:1.5;"/>
   </g>
   <g id="line2d_58">
    <path clip-path="url(#p59b1af0913)" style="fill:none;stroke:#6495ed;stroke-linecap:square;stroke-width:1.5;"/>
   </g>
   <g id="line2d_59">
    <path clip-path="url(#p59b1af0913)" d="M 26.08 217 
L 41.04 209.52 
L 213.84 123.12 
L 217 121.54 
" style="fill:none;stroke:#6495ed;stroke-linecap:square;stroke-width:1.5;"/>
   </g>
   <g id="line2d_60">
    <path clip-path="url(#p59b1af0913)" d="M 61.48 217 
L 54 209.52 
L -1 154.52 
" style="fill:none;stroke:#6495ed;stroke-linecap:square;stroke-width:1.5;"/>
   </g>
   <g id="line2d_61">
    <path clip-path="url(#p59b1af0913)" d="M -1 172.22 
L 2.16 170.64 
L 174.96 84.24 
L 217 63.22 
" style="fill:none;stroke:#000000;stroke-linecap:square;stroke-width:1.5;"/>
   </g>
   <g id="line2d_62">
    <path clip-path="url(#p59b1af0913)" d="M 178.12 217 
L 131.76 170.64 
L 45.36 84.24 
L -1 37.88 
" style="fill:none;stroke:#000000;stroke-linecap:square;stroke-width:1.5;"/>
   </g>
   <g id="line2d_63">
    <path clip-path="url(#p59b1af0913)" d="M -1 113.9 
L 136.08 45.36 
L 217 4.9 
" style="fill:none;stroke:#6495ed;stroke-linecap:square;stroke-width:1.5;"/>
   </g>
   <g id="line2d_64">
    <path clip-path="url(#p59b1af0913)" d="M 217 139.24 
L 209.52 131.76 
L 123.12 45.36 
L 76.76 -1 
" style="fill:none;stroke:#6495ed;stroke-linecap:square;stroke-width:1.5;"/>
   </g>
   <g id="line2d_65">
    <path clip-path="url(#p59b1af0913)" d="M -1 55.58 
L 97.2 6.48 
L 112.16 -1 
" style="fill:none;stroke:#6495ed;stroke-linecap:square;stroke-width:1.5;"/>
   </g>
   <g id="line2d_66">
    <path clip-path="url(#p59b1af0913)" d="M 217 22.6 
L 200.88 6.48 
L 193.4 -1 
" style="fill:none;stroke:#6495ed;stroke-linecap:square;stroke-width:1.5;"/>
   </g>
   <g id="line2d_67">
    <path clip-path="url(#p59b1af0913)" style="fill:none;stroke:#6495ed;stroke-linecap:square;stroke-width:1.5;"/>
   </g>
   <g id="line2d_68">
    <path clip-path="url(#p59b1af0913)" style="fill:none;stroke:#6495ed;stroke-linecap:square;stroke-width:1.5;"/>
   </g>
   <g id="line2d_69">
    <path clip-path="url(#p59b1af0913)" style="fill:none;stroke:#6495ed;stroke-linecap:square;stroke-width:1.5;"/>
   </g>
   <g id="line2d_70">
    <path clip-path="url(#p59b1af0913)" style="fill:none;stroke:#6495ed;stroke-linecap:square;stroke-width:1.5;"/>
   </g>
   <g id="line2d_71">
    <path clip-path="url(#p59b1af0913)" style="fill:none;stroke:#6495ed;stroke-linecap:square;stroke-width:1.5;"/>
   </g>
   <g id="line2d_72">
    <path clip-path="url(#p59b1af0913)" style="fill:none;stroke:#6495ed;stroke-linecap:square;stroke-width:1.5;"/>
   </g>
   <g id="line2d_73">
    <path clip-path="url(#p59b1af0913)" style="fill:none;stroke:#6495ed;stroke-linecap:square;stroke-width:1.5;"/>
   </g>
   <g id="line2d_74">
    <path clip-path="url(#p59b1af0913)" style="fill:none;stroke:#6495ed;stroke-linecap:square;stroke-width:1.5;"/>
   </g>
   <g id="line2d_75">
    <path clip-path="url(#p59b1af0913)" style="fill:none;stroke:#6495ed;stroke-linecap:square;stroke-width:1.5;"/>
   </g>
   <g id="line2d_76">
    <path clip-path="url(#p59b1af0913)" style="fill:none;stroke:#6495ed;stroke-linecap:square;stroke-width:1.5;"/>
   </g>
   <g id="line2d_77">
    <path clip-path="url(#p59b1af0913)" style="fill:none;stroke:#6495ed;stroke-linecap:square;stroke-width:1.5;"/>
   </g>
   <g id="line2d_78">
    <path clip-path="url(#p59b1af0913)" style="fill:none;stroke:#6495ed;stroke-linecap:square;stroke-width:1.5;"/>
   </g>
   <g id="line2d_79">
    <path clip-path="url(#p59b1af0913)" style="fill:none;stroke:#6495ed;stroke-linecap:square;stroke-width:1.5;"/>
   </g>
   <g id="line2d_80">
    <path clip-path="url(#p59b1af0913)" style="fill:none;stroke:#6495ed;stroke-linecap:square;stroke-width:1.5;"/>
   </g>
   <g id="patch_2">
    <path clip-path="url(#p59b1af0913)" d="M 127.44 127.44 
L 115.776 130.356 
L 115.776 127.8288 
L 88.56 127.8288 
L 88.56 127.0512 
L 115.776 127.0512 
L 115.776 124.524 
z
" style="fill:#ff0000;opacity:0.3;stroke:#ff0000;stroke-linejoin:miter;"/>
   </g>
   <g id="patch_3">
    <path clip-path="url(#p59b1af0913)" d="M 88.56 88.56 
L 91.476 100.224 
L 88.9488 100.224 
L 88.9488 127.44 
L 88.1712 127.44 
L 88.1712 100.224 
L 85.644 100.224 
z
" style="fill:#0000ff;opacity:0.3;stroke:#0000ff;stroke-linejoin:miter;"/>
   </g>
   <g id="patch_4">
    <path clip-path="url(#p59b1af0913)" d="M 127.44 88.56 
L 121.25423 98.869617 
L 119.46723 97.082617 
L 88.834923 127.714923 
L 88.285077 127.165077 
L 118.917383 96.53277 
L 117.130383 94.74577 
z
" style="fill:#008000;opacity:0.3;stroke:#008000;stroke-linejoin:miter;"/>
   </g>
   <g id="patch_5">
    <path clip-path="url(#p59b1af0913)" d="M 166.32 88.56 
L 157.191476 96.384449 
L 156.061278 94.124053 
L 88.733877 127.787753 
L 88.386123 127.092247 
L 155.713525 93.428546 
L 154.583326 91.16815 
z
" style="fill:#ff0000;stroke:#ff0000;stroke-linejoin:miter;"/>
   </g>
   <g id="patch_6">
    <path clip-path="url(#p59b1af0913)" d="M 49.68 88.56 
L 59.989617 94.74577 
L 58.202617 96.53277 
L 88.834923 127.165077 
L 88.285077 127.714923 
L 57.65277 97.082617 
L 55.86577 98.869617 
z
" style="fill:#0000ff;stroke:#0000ff;stroke-linejoin:miter;"/>
   </g>
   <g id="patch_7">
    <path clip-path="url(#p59b1af0913)" d="M 127.44 49.68 
L 124.83185 61.416674 
L 122.571454 60.286475 
L 88.907753 127.613877 
L 88.212247 127.266123 
L 121.875947 59.938722 
L 119.615551 58.808524 
z
" style="fill:#008000;stroke:#008000;stroke-linejoin:miter;"/>
   </g>
   <g id="text_1">
    <!-- $e_1$ -->
    <g style="fill:#ff0000;opacity:0.3;" transform="translate(127.44 123.552)scale(0.14 -0.14)">
     <defs>
      <path d="M 48.09375 32.234375 
Q 48.25 33.015625 48.3125 33.84375 
Q 48.390625 34.671875 48.390625 35.5 
Q 48.390625 41.453125 44.890625 44.921875 
Q 41.40625 48.390625 35.40625 48.390625 
Q 28.71875 48.390625 23.578125 44.15625 
Q 18.453125 39.9375 15.828125 32.171875 
z
M 55.90625 25.203125 
L 14.109375 25.203125 
Q 13.8125 23.34375 13.71875 22.265625 
Q 13.625 21.1875 13.625 20.40625 
Q 13.625 13.625 17.796875 9.90625 
Q 21.96875 6.203125 29.59375 6.203125 
Q 35.453125 6.203125 40.671875 7.515625 
Q 45.90625 8.84375 50.390625 11.375 
L 48.6875 2.484375 
Q 43.84375 0.53125 38.6875 -0.4375 
Q 33.546875 -1.421875 28.21875 -1.421875 
Q 16.84375 -1.421875 10.71875 4.015625 
Q 4.59375 9.46875 4.59375 19.484375 
Q 4.59375 28.03125 7.640625 35.375 
Q 10.6875 42.71875 16.609375 48.484375 
Q 20.40625 52.09375 25.65625 54.046875 
Q 30.90625 56 36.8125 56 
Q 46.09375 56 51.578125 50.4375 
Q 57.078125 44.875 57.078125 35.5 
Q 57.078125 33.25 56.78125 30.6875 
Q 56.5 28.125 55.90625 25.203125 
z
" id="DejaVuSans-Oblique-101"/>
      <path d="M 12.40625 8.296875 
L 28.515625 8.296875 
L 28.515625 63.921875 
L 10.984375 60.40625 
L 10.984375 69.390625 
L 28.421875 72.90625 
L 38.28125 72.90625 
L 38.28125 8.296875 
L 54.390625 8.296875 
L 54.390625 0 
L 12.40625 0 
z
" id="DejaVuSans-49"/>
     </defs>
     <use xlink:href="#DejaVuSans-Oblique-101"/>
     <use transform="translate(61.523438 -16.40625)scale(0.7)" xlink:href="#DejaVuSans-49"/>
    </g>
   </g>
   <g id="text_2">
    <!-- $e_2$ -->
    <g style="fill:#0000ff;opacity:0.3;" transform="translate(92.448 88.56)scale(0.14 -0.14)">
     <defs>
      <path d="M 19.1875 8.296875 
L 53.609375 8.296875 
L 53.609375 0 
L 7.328125 0 
L 7.328125 8.296875 
Q 12.9375 14.109375 22.625 23.890625 
Q 32.328125 33.6875 34.8125 36.53125 
Q 39.546875 41.84375 41.421875 45.53125 
Q 43.3125 49.21875 43.3125 52.78125 
Q 43.3125 58.59375 39.234375 62.25 
Q 35.15625 65.921875 28.609375 65.921875 
Q 23.96875 65.921875 18.8125 64.3125 
Q 13.671875 62.703125 7.8125 59.421875 
L 7.8125 69.390625 
Q 13.765625 71.78125 18.9375 73 
Q 24.125 74.21875 28.421875 74.21875 
Q 39.75 74.21875 46.484375 68.546875 
Q 53.21875 62.890625 53.21875 53.421875 
Q 53.21875 48.921875 51.53125 44.890625 
Q 49.859375 40.875 45.40625 35.40625 
Q 44.1875 33.984375 37.640625 27.21875 
Q 31.109375 20.453125 19.1875 8.296875 
z
" id="DejaVuSans-50"/>
     </defs>
     <use xlink:href="#DejaVuSans-Oblique-101"/>
     <use transform="translate(61.523438 -16.40625)scale(0.7)" xlink:href="#DejaVuSans-50"/>
    </g>
   </g>
   <g id="text_3">
    <!-- $v$ -->
    <g style="fill:#008000;opacity:0.3;" transform="translate(127.44 88.56)scale(0.14 -0.14)">
     <defs>
      <path d="M 7.171875 54.6875 
L 16.703125 54.6875 
L 24.703125 8.203125 
L 50.875 54.6875 
L 60.40625 54.6875 
L 29.296875 0 
L 17.1875 0 
z
" id="DejaVuSans-Oblique-118"/>
     </defs>
     <use transform="translate(0 0.3125)" xlink:href="#DejaVuSans-Oblique-118"/>
    </g>
   </g>
   <g id="text_4">
    <!-- O -->
    <g transform="translate(76.896 139.104)scale(0.14 -0.14)">
     <defs>
      <path d="M 4.828125 34.859375 
Q 4.828125 52.6875 14.390625 62.765625 
Q 23.96875 72.859375 39.109375 72.859375 
Q 49.03125 72.859375 56.984375 68.109375 
Q 64.9375 63.375 69.109375 54.90625 
Q 73.296875 46.4375 73.296875 35.6875 
Q 73.296875 24.8125 68.890625 16.21875 
Q 64.5 7.625 56.4375 3.203125 
Q 48.390625 -1.21875 39.0625 -1.21875 
Q 28.953125 -1.21875 20.984375 3.65625 
Q 13.03125 8.546875 8.921875 16.984375 
Q 4.828125 25.4375 4.828125 34.859375 
z
M 14.59375 34.71875 
Q 14.59375 21.78125 21.546875 14.328125 
Q 28.515625 6.890625 39.015625 6.890625 
Q 49.703125 6.890625 56.609375 14.40625 
Q 63.53125 21.921875 63.53125 35.75 
Q 63.53125 44.484375 60.578125 51 
Q 57.625 57.515625 51.921875 61.109375 
Q 46.234375 64.703125 39.15625 64.703125 
Q 29.109375 64.703125 21.84375 57.78125 
Q 14.59375 50.875 14.59375 34.71875 
z
" id="ArialMT-79"/>
     </defs>
     <use xlink:href="#ArialMT-79"/>
    </g>
   </g>
   <g id="text_5">
    <!-- $e_1^\prime$ -->
    <g style="fill:#ff0000;" transform="translate(162.432 84.672)scale(0.14 -0.14)">
     <defs>
      <path d="M 3.515625 5.421875 
Q 2.875 5.609375 2.875 6.390625 
L 15.09375 51.8125 
Q 15.671875 53.65625 17.078125 54.78125 
Q 18.5 55.90625 20.3125 55.90625 
Q 22.65625 55.90625 24.4375 54.359375 
Q 26.21875 52.828125 26.21875 50.484375 
Q 26.21875 49.46875 25.6875 48.1875 
L 7.625 4.984375 
Q 7.28125 4.296875 6.6875 4.296875 
Q 6.15625 4.296875 5 4.78125 
Q 3.859375 5.28125 3.515625 5.421875 
z
" id="Cmsy10-48"/>
     </defs>
     <use transform="translate(0 0.584375)" xlink:href="#DejaVuSans-Oblique-101"/>
     <use transform="translate(66.173333 38.865625)scale(0.7)" xlink:href="#Cmsy10-48"/>
     <use transform="translate(61.523438 -26.759375)scale(0.7)" xlink:href="#DejaVuSans-49"/>
    </g>
   </g>
   <g id="text_6">
    <!-- $e_2^\prime$ -->
    <g style="fill:#0000ff;" transform="translate(57.456 84.672)scale(0.14 -0.14)">
     <use transform="translate(0 0.584375)" xlink:href="#DejaVuSans-Oblique-101"/>
     <use transform="translate(66.173333 38.865625)scale(0.7)" xlink:href="#Cmsy10-48"/>
     <use transform="translate(61.523438 -26.759375)scale(0.7)" xlink:href="#DejaVuSans-50"/>
    </g>
   </g>
   <g id="text_7">
    <!-- $v^\prime$ -->
    <g style="fill:#008000;" transform="translate(127.44 49.68)scale(0.14 -0.14)">
     <use transform="translate(0 0.584375)" xlink:href="#DejaVuSans-Oblique-118"/>
     <use transform="translate(63.645833 38.865625)scale(0.7)" xlink:href="#Cmsy10-48"/>
    </g>
   </g>
   <g id="text_8">
    <!-- O -->
    <g transform="translate(76.896 139.104)scale(0.14 -0.14)">
     <use xlink:href="#ArialMT-79"/>
    </g>
   </g>
   <g id="text_9">
    <!-- -1 -->
    <g transform="translate(127.44 162.432)scale(0.14 -0.14)">
     <defs>
      <path d="M 3.171875 21.484375 
L 3.171875 30.328125 
L 30.171875 30.328125 
L 30.171875 21.484375 
z
" id="ArialMT-45"/>
      <path d="M 37.25 0 
L 28.46875 0 
L 28.46875 56 
Q 25.296875 52.984375 20.140625 49.953125 
Q 14.984375 46.921875 10.890625 45.40625 
L 10.890625 53.90625 
Q 18.265625 57.375 23.78125 62.296875 
Q 29.296875 67.234375 31.59375 71.875 
L 37.25 71.875 
z
" id="ArialMT-49"/>
     </defs>
     <use xlink:href="#ArialMT-45"/>
     <use x="33.300781" xlink:href="#ArialMT-49"/>
    </g>
   </g>
   <g id="text_10">
    <!-- 1 -->
    <g transform="translate(174.096 96.336)scale(0.14 -0.14)">
     <use xlink:href="#ArialMT-49"/>
    </g>
   </g>
   <g id="text_11">
    <!-- 1 -->
    <g transform="translate(49.68 84.672)scale(0.14 -0.14)">
     <use xlink:href="#ArialMT-49"/>
    </g>
   </g>
   <g id="text_12">
    <!-- 2 -->
    <g transform="translate(10.8 45.792)scale(0.14 -0.14)">
     <defs>
      <path d="M 50.34375 8.453125 
L 50.34375 0 
L 3.03125 0 
Q 2.9375 3.171875 4.046875 6.109375 
Q 5.859375 10.9375 9.828125 15.625 
Q 13.8125 20.3125 21.34375 26.46875 
Q 33.015625 36.03125 37.109375 41.625 
Q 41.21875 47.21875 41.21875 52.203125 
Q 41.21875 57.421875 37.46875 61 
Q 33.734375 64.59375 27.734375 64.59375 
Q 21.390625 64.59375 17.578125 60.78125 
Q 13.765625 56.984375 13.71875 50.25 
L 4.6875 51.171875 
Q 5.609375 61.28125 11.65625 66.578125 
Q 17.71875 71.875 27.9375 71.875 
Q 38.234375 71.875 44.234375 66.15625 
Q 50.25 60.453125 50.25 52 
Q 50.25 47.703125 48.484375 43.546875 
Q 46.734375 39.40625 42.65625 34.8125 
Q 38.578125 30.21875 29.109375 22.21875 
Q 21.1875 15.578125 18.9375 13.203125 
Q 16.703125 10.84375 15.234375 8.453125 
z
" id="ArialMT-50"/>
     </defs>
     <use xlink:href="#ArialMT-50"/>
    </g>
   </g>
  </g>
 </g>
 <defs>
  <clipPath id="p59b1af0913">
   <rect height="194.4" width="194.4" x="10.8" y="10.8"/>
  </clipPath>
 </defs>
</svg>
